<svg id="visual" viewBox="0 0 675 900" width="675" height="900" xmlns="http://www.w3.org/2000/svg"
     version="1.1">
    <g transform="translate(363.0405075064664 499.8808336317652)">
        <path id='blob-1' d="M135.9 -154.3C173.7 -98.1 200.4 -49 199.5 -0.8C198.7 47.4 170.4 94.8 132.6 122.9C94.8 151 47.4 159.9 -7.1 167C-61.5 174 -123 179.3 -172 151.2C-221 123 -257.5 61.5 -249.5 8C-241.5 -45.5 -189 -91 -140 -147.2C-91 -203.5 -45.5 -270.5 1.8 -272.3C49 -274 98.1 -210.6 135.9 -154.3"
              fill="#679CC2"></path>
    </g>
    <g transform="translate(342.86468965731706 455.02570712951035)" style="visibility: hidden">
        <path id='blob-2' d="M203.1 -190.1C252.1 -154.1 273.1 -77.1 261.4 -11.7C249.7 53.7 205.5 107.5 156.5 147.6C107.5 187.8 53.7 214.4 7 207.4C-39.8 200.4 -79.6 159.9 -135.8 119.7C-192.1 79.6 -264.8 39.8 -274.2 -9.5C-283.7 -58.7 -229.9 -117.4 -173.6 -153.4C-117.4 -189.4 -58.7 -202.7 9.2 -211.9C77.1 -221.1 154.1 -226.1 203.1 -190.1"
              fill="#679CC2"></path>
    </g>
</svg>
