<svg id="visual" viewBox="0 0 960 540" width="100%" height="100%" xmlns="http://www.w3.org/2000/svg" xmlns:xlink="http://www.w3.org/1999/xlink" version="1.1"><rect x="0" y="0" width="960" height="540" fill="#293C4A"></rect><path d="M0 218L22.8 208C45.7 198 91.3 178 137 173.7C182.7 169.3 228.3 180.7 274 177.3C319.7 174 365.3 156 411.2 157.2C457 158.3 503 178.7 548.8 182.7C594.7 186.7 640.3 174.3 686 177.3C731.7 180.3 777.3 198.7 823 208C868.7 217.3 914.3 217.7 937.2 217.8L960 218L960 0L937.2 0C914.3 0 868.7 0 823 0C777.3 0 731.7 0 686 0C640.3 0 594.7 0 548.8 0C503 0 457 0 411.2 0C365.3 0 319.7 0 274 0C228.3 0 182.7 0 137 0C91.3 0 45.7 0 22.8 0L0 0Z" fill="#2f678f"></path><path d="M0 152L22.8 150.8C45.7 149.7 91.3 147.3 137 151.8C182.7 156.3 228.3 167.7 274 170.8C319.7 174 365.3 169 411.2 163.7C457 158.3 503 152.7 548.8 145C594.7 137.3 640.3 127.7 686 133.8C731.7 140 777.3 162 823 172.5C868.7 183 914.3 182 937.2 181.5L960 181L960 0L937.2 0C914.3 0 868.7 0 823 0C777.3 0 731.7 0 686 0C640.3 0 594.7 0 548.8 0C503 0 457 0 411.2 0C365.3 0 319.7 0 274 0C228.3 0 182.7 0 137 0C91.3 0 45.7 0 22.8 0L0 0Z" fill="#3e749b"></path><path d="M0 92L22.8 92.7C45.7 93.3 91.3 94.7 137 93.2C182.7 91.7 228.3 87.3 274 85.8C319.7 84.3 365.3 85.7 411.2 94.8C457 104 503 121 548.8 120.8C594.7 120.7 640.3 103.3 686 93.8C731.7 84.3 777.3 82.7 823 89.5C868.7 96.3 914.3 111.7 937.2 119.3L960 127L960 0L937.2 0C914.3 0 868.7 0 823 0C777.3 0 731.7 0 686 0C640.3 0 594.7 0 548.8 0C503 0 457 0 411.2 0C365.3 0 319.7 0 274 0C228.3 0 182.7 0 137 0C91.3 0 45.7 0 22.8 0L0 0Z" fill="#4c81a8"></path><path d="M0 82L22.8 81.8C45.7 81.7 91.3 81.3 137 81.3C182.7 81.3 228.3 81.7 274 77.8C319.7 74 365.3 66 411.2 65.3C457 64.7 503 71.3 548.8 78.7C594.7 86 640.3 94 686 96.8C731.7 99.7 777.3 97.3 823 95.2C868.7 93 914.3 91 937.2 90L960 89L960 0L937.2 0C914.3 0 868.7 0 823 0C777.3 0 731.7 0 686 0C640.3 0 594.7 0 548.8 0C503 0 457 0 411.2 0C365.3 0 319.7 0 274 0C228.3 0 182.7 0 137 0C91.3 0 45.7 0 22.8 0L0 0Z" fill="#5a8eb5"></path><path d="M0 61L22.8 56.2C45.7 51.3 91.3 41.7 137 35.7C182.7 29.7 228.3 27.3 274 32C319.7 36.7 365.3 48.3 411.2 49.5C457 50.7 503 41.3 548.8 39.5C594.7 37.7 640.3 43.3 686 48.3C731.7 53.3 777.3 57.7 823 56.3C868.7 55 914.3 48 937.2 44.5L960 41L960 0L937.2 0C914.3 0 868.7 0 823 0C777.3 0 731.7 0 686 0C640.3 0 594.7 0 548.8 0C503 0 457 0 411.2 0C365.3 0 319.7 0 274 0C228.3 0 182.7 0 137 0C91.3 0 45.7 0 22.8 0L0 0Z" fill="#679cc2"></path></svg>
