<svg id="visual" viewBox="0 0 960 540" width="100%" height="100%" xmlns="http://www.w3.org/2000/svg" xmlns:xlink="http://www.w3.org/1999/xlink" version="1.1"><rect x="0" y="0" width="960" height="540" fill="#679CC2"></rect><path d="M0 349L22.8 354C45.7 359 91.3 369 137 373.8C182.7 378.7 228.3 378.3 274 376.7C319.7 375 365.3 372 411.2 369C457 366 503 363 548.8 378.7C594.7 394.3 640.3 428.7 686 426.5C731.7 424.3 777.3 385.7 823 384.8C868.7 384 914.3 421 937.2 439.5L960 458L960 541L937.2 541C914.3 541 868.7 541 823 541C777.3 541 731.7 541 686 541C640.3 541 594.7 541 548.8 541C503 541 457 541 411.2 541C365.3 541 319.7 541 274 541C228.3 541 182.7 541 137 541C91.3 541 45.7 541 22.8 541L0 541Z" fill="#293C4A" stroke-linecap="round" stroke-linejoin="miter"></path></svg>
