<svg id="visual" viewBox="0 0 960 540" width="100%" height="100%" xmlns="http://www.w3.org/2000/svg" xmlns:xlink="http://www.w3.org/1999/xlink" version="1.1"><rect x="0" y="0" width="960" height="540" fill="#293C4A"></rect><path d="M0 373L12.3 375.2C24.7 377.3 49.3 381.7 74 379.3C98.7 377 123.3 368 148 369C172.7 370 197.3 381 221.8 384C246.3 387 270.7 382 295.2 379.2C319.7 376.3 344.3 375.7 369 379.2C393.7 382.7 418.3 390.3 443 387.8C467.7 385.3 492.3 372.7 517 368.3C541.7 364 566.3 368 591 375C615.7 382 640.3 392 664.8 395.7C689.3 399.3 713.7 396.7 738.2 387.3C762.7 378 787.3 362 812 349.7C836.7 337.3 861.3 328.7 886 331.8C910.7 335 935.3 350 947.7 357.5L960 365L960 541L947.7 541C935.3 541 910.7 541 886 541C861.3 541 836.7 541 812 541C787.3 541 762.7 541 738.2 541C713.7 541 689.3 541 664.8 541C640.3 541 615.7 541 591 541C566.3 541 541.7 541 517 541C492.3 541 467.7 541 443 541C418.3 541 393.7 541 369 541C344.3 541 319.7 541 295.2 541C270.7 541 246.3 541 221.8 541C197.3 541 172.7 541 148 541C123.3 541 98.7 541 74 541C49.3 541 24.7 541 12.3 541L0 541Z" fill="#2f678f"></path><path d="M0 412L12.3 413.2C24.7 414.3 49.3 416.7 74 413.8C98.7 411 123.3 403 148 394.3C172.7 385.7 197.3 376.3 221.8 379.5C246.3 382.7 270.7 398.3 295.2 401C319.7 403.7 344.3 393.3 369 397.2C393.7 401 418.3 419 443 418.8C467.7 418.7 492.3 400.3 517 394.2C541.7 388 566.3 394 591 398.5C615.7 403 640.3 406 664.8 405.3C689.3 404.7 713.7 400.3 738.2 397.7C762.7 395 787.3 394 812 396.8C836.7 399.7 861.3 406.3 886 410.3C910.7 414.3 935.3 415.7 947.7 416.3L960 417L960 541L947.7 541C935.3 541 910.7 541 886 541C861.3 541 836.7 541 812 541C787.3 541 762.7 541 738.2 541C713.7 541 689.3 541 664.8 541C640.3 541 615.7 541 591 541C566.3 541 541.7 541 517 541C492.3 541 467.7 541 443 541C418.3 541 393.7 541 369 541C344.3 541 319.7 541 295.2 541C270.7 541 246.3 541 221.8 541C197.3 541 172.7 541 148 541C123.3 541 98.7 541 74 541C49.3 541 24.7 541 12.3 541L0 541Z" fill="#4378a0"></path><path d="M0 445L12.3 445.8C24.7 446.7 49.3 448.3 74 445.8C98.7 443.3 123.3 436.7 148 440C172.7 443.3 197.3 456.7 221.8 461.8C246.3 467 270.7 464 295.2 456C319.7 448 344.3 435 369 428.2C393.7 421.3 418.3 420.7 443 422.7C467.7 424.7 492.3 429.3 517 432.3C541.7 435.3 566.3 436.7 591 440.8C615.7 445 640.3 452 664.8 457.8C689.3 463.7 713.7 468.3 738.2 467.3C762.7 466.3 787.3 459.7 812 457.2C836.7 454.7 861.3 456.3 886 455.2C910.7 454 935.3 450 947.7 448L960 446L960 541L947.7 541C935.3 541 910.7 541 886 541C861.3 541 836.7 541 812 541C787.3 541 762.7 541 738.2 541C713.7 541 689.3 541 664.8 541C640.3 541 615.7 541 591 541C566.3 541 541.7 541 517 541C492.3 541 467.7 541 443 541C418.3 541 393.7 541 369 541C344.3 541 319.7 541 295.2 541C270.7 541 246.3 541 221.8 541C197.3 541 172.7 541 148 541C123.3 541 98.7 541 74 541C49.3 541 24.7 541 12.3 541L0 541Z" fill="#558ab1"></path><path d="M0 487L12.3 486.8C24.7 486.7 49.3 486.3 74 483.3C98.7 480.3 123.3 474.7 148 474.8C172.7 475 197.3 481 221.8 487C246.3 493 270.7 499 295.2 495C319.7 491 344.3 477 369 472.5C393.7 468 418.3 473 443 478C467.7 483 492.3 488 517 493.5C541.7 499 566.3 505 591 500.2C615.7 495.3 640.3 479.7 664.8 477.5C689.3 475.3 713.7 486.7 738.2 491.8C762.7 497 787.3 496 812 490.7C836.7 485.3 861.3 475.7 886 478.2C910.7 480.7 935.3 495.3 947.7 502.7L960 510L960 541L947.7 541C935.3 541 910.7 541 886 541C861.3 541 836.7 541 812 541C787.3 541 762.7 541 738.2 541C713.7 541 689.3 541 664.8 541C640.3 541 615.7 541 591 541C566.3 541 541.7 541 517 541C492.3 541 467.7 541 443 541C418.3 541 393.7 541 369 541C344.3 541 319.7 541 295.2 541C270.7 541 246.3 541 221.8 541C197.3 541 172.7 541 148 541C123.3 541 98.7 541 74 541C49.3 541 24.7 541 12.3 541L0 541Z" fill="#679cc2"></path></svg>
