<svg id="visual" viewBox="0 0 540 960" width="100%" height="100%" xmlns="http://www.w3.org/2000/svg" xmlns:xlink="http://www.w3.org/1999/xlink" version="1.1"><rect x="0" y="0" width="540" height="960" fill="#293C4A"></rect><path d="M0 389L12.8 371C25.7 353 51.3 317 77 309.3C102.7 301.7 128.3 322.3 154 316.7C179.7 311 205.3 279 231.2 280.8C257 282.7 283 318.3 308.8 325.2C334.7 332 360.3 310 386 315.5C411.7 321 437.3 354 463 370.7C488.7 387.3 514.3 387.7 527.2 387.8L540 388L540 0L527.2 0C514.3 0 488.7 0 463 0C437.3 0 411.7 0 386 0C360.3 0 334.7 0 308.8 0C283 0 257 0 231.2 0C205.3 0 179.7 0 154 0C128.3 0 102.7 0 77 0C51.3 0 25.7 0 12.8 0L0 0Z" fill="#2f678f"></path><path d="M0 271L12.8 269C25.7 267 51.3 263 77 271C102.7 279 128.3 299 154 304.5C179.7 310 205.3 301 231.2 291.5C257 282 283 272 308.8 258.5C334.7 245 360.3 228 386 238.8C411.7 249.7 437.3 288.3 463 307C488.7 325.7 514.3 324.3 527.2 323.7L540 323L540 0L527.2 0C514.3 0 488.7 0 463 0C437.3 0 411.7 0 386 0C360.3 0 334.7 0 308.8 0C283 0 257 0 231.2 0C205.3 0 179.7 0 154 0C128.3 0 102.7 0 77 0C51.3 0 25.7 0 12.8 0L0 0Z" fill="#3e749b"></path><path d="M0 164L12.8 165.3C25.7 166.7 51.3 169.3 77 166.7C102.7 164 128.3 156 154 153.2C179.7 150.3 205.3 152.7 231.2 169C257 185.3 283 215.7 308.8 215.5C334.7 215.3 360.3 184.7 386 167.8C411.7 151 437.3 148 463 160.2C488.7 172.3 514.3 199.7 527.2 213.3L540 227L540 0L527.2 0C514.3 0 488.7 0 463 0C437.3 0 411.7 0 386 0C360.3 0 334.7 0 308.8 0C283 0 257 0 231.2 0C205.3 0 179.7 0 154 0C128.3 0 102.7 0 77 0C51.3 0 25.7 0 12.8 0L0 0Z" fill="#4c81a8"></path><path d="M0 147L12.8 146.7C25.7 146.3 51.3 145.7 77 145.7C102.7 145.7 128.3 146.3 154 139.3C179.7 132.3 205.3 117.7 231.2 116.3C257 115 283 127 308.8 140.2C334.7 153.3 360.3 167.7 386 172.8C411.7 178 437.3 174 463 170.2C488.7 166.3 514.3 162.7 527.2 160.8L540 159L540 0L527.2 0C514.3 0 488.7 0 463 0C437.3 0 411.7 0 386 0C360.3 0 334.7 0 308.8 0C283 0 257 0 231.2 0C205.3 0 179.7 0 154 0C128.3 0 102.7 0 77 0C51.3 0 25.7 0 12.8 0L0 0Z" fill="#5a8eb5"></path><path d="M0 109L12.8 100.3C25.7 91.7 51.3 74.3 77 63.5C102.7 52.7 128.3 48.3 154 56.7C179.7 65 205.3 86 231.2 88.3C257 90.7 283 74.3 308.8 71.2C334.7 68 360.3 78 386 86.8C411.7 95.7 437.3 103.3 463 100.8C488.7 98.3 514.3 85.7 527.2 79.3L540 73L540 0L527.2 0C514.3 0 488.7 0 463 0C437.3 0 411.7 0 386 0C360.3 0 334.7 0 308.8 0C283 0 257 0 231.2 0C205.3 0 179.7 0 154 0C128.3 0 102.7 0 77 0C51.3 0 25.7 0 12.8 0L0 0Z" fill="#679cc2"></path></svg>
