<svg id="visual" viewBox="0 0 540 960" width="100%" height="100%" xmlns="http://www.w3.org/2000/svg"
     version="1.1">
    <rect x="0" y="0" width="540" height="960" fill="#293C4A"></rect>
    <path d="M0 663L7 667C14 671 28 679 41.8 675C55.7 671 69.3 655 83.2 657C97 659 111 679 124.8 684.3C138.7 689.7 152.3 680.3 166.2 675C180 669.7 194 668.3 207.8 674.7C221.7 681 235.3 695 249.2 690.8C263 686.7 277 664.3 290.8 656.5C304.7 648.7 318.3 655.3 332.2 667.7C346 680 360 698 373.8 704.7C387.7 711.3 401.3 706.7 415.2 690C429 673.3 443 644.7 456.8 622.5C470.7 600.3 484.3 584.7 498.2 590.2C512 595.7 526 622.3 533 635.7L540 649L540 961L533 961C526 961 512 961 498.2 961C484.3 961 470.7 961 456.8 961C443 961 429 961 415.2 961C401.3 961 387.7 961 373.8 961C360 961 346 961 332.2 961C318.3 961 304.7 961 290.8 961C277 961 263 961 249.2 961C235.3 961 221.7 961 207.8 961C194 961 180 961 166.2 961C152.3 961 138.7 961 124.8 961C111 961 97 961 83.2 961C69.3 961 55.7 961 41.8 961C28 961 14 961 7 961L0 961Z"
          fill="#2f678f"></path>
    <path d="M0 733L7 735C14 737 28 741 41.8 736C55.7 731 69.3 717 83.2 701.8C97 686.7 111 670.3 124.8 675.8C138.7 681.3 152.3 708.7 166.2 713.3C180 718 194 700 207.8 707C221.7 714 235.3 746 249.2 745.8C263 745.7 277 713.3 290.8 702.2C304.7 691 318.3 701 332.2 708.8C346 716.7 360 722.3 373.8 721.3C387.7 720.3 401.3 712.7 415.2 708C429 703.3 443 701.7 456.8 706.7C470.7 711.7 484.3 723.3 498.2 730.3C512 737.3 526 739.7 533 740.8L540 742L540 961L533 961C526 961 512 961 498.2 961C484.3 961 470.7 961 456.8 961C443 961 429 961 415.2 961C401.3 961 387.7 961 373.8 961C360 961 346 961 332.2 961C318.3 961 304.7 961 290.8 961C277 961 263 961 249.2 961C235.3 961 221.7 961 207.8 961C194 961 180 961 166.2 961C152.3 961 138.7 961 124.8 961C111 961 97 961 83.2 961C69.3 961 55.7 961 41.8 961C28 961 14 961 7 961L0 961Z"
          fill="#4378a0"></path>
    <path d="M0 792L7 793.3C14 794.7 28 797.3 41.8 793C55.7 788.7 69.3 777.3 83.2 783.5C97 789.7 111 813.3 124.8 822.2C138.7 831 152.3 825 166.2 810.7C180 796.3 194 773.7 207.8 761.8C221.7 750 235.3 749 249.2 752.5C263 756 277 764 290.8 769.2C304.7 774.3 318.3 776.7 332.2 784.2C346 791.7 360 804.3 373.8 814.8C387.7 825.3 401.3 833.7 415.2 831.8C429 830 443 818 456.8 813.7C470.7 809.3 484.3 812.7 498.2 810.5C512 808.3 526 800.7 533 796.8L540 793L540 961L533 961C526 961 512 961 498.2 961C484.3 961 470.7 961 456.8 961C443 961 429 961 415.2 961C401.3 961 387.7 961 373.8 961C360 961 346 961 332.2 961C318.3 961 304.7 961 290.8 961C277 961 263 961 249.2 961C235.3 961 221.7 961 207.8 961C194 961 180 961 166.2 961C152.3 961 138.7 961 124.8 961C111 961 97 961 83.2 961C69.3 961 55.7 961 41.8 961C28 961 14 961 7 961L0 961Z"
          fill="#558ab1"></path>
    <path d="M0 867L7 866.7C14 866.3 28 865.7 41.8 860.2C55.7 854.7 69.3 844.3 83.2 844.7C97 845 111 856 124.8 866.8C138.7 877.7 152.3 888.3 166.2 881C180 873.7 194 848.3 207.8 840.2C221.7 832 235.3 841 249.2 850C263 859 277 868 290.8 878C304.7 888 318.3 899 332.2 890.3C346 881.7 360 853.3 373.8 849.5C387.7 845.7 401.3 866.3 415.2 875.7C429 885 443 883 456.8 873.5C470.7 864 484.3 847 498.2 851.5C512 856 526 882 533 895L540 908L540 961L533 961C526 961 512 961 498.2 961C484.3 961 470.7 961 456.8 961C443 961 429 961 415.2 961C401.3 961 387.7 961 373.8 961C360 961 346 961 332.2 961C318.3 961 304.7 961 290.8 961C277 961 263 961 249.2 961C235.3 961 221.7 961 207.8 961C194 961 180 961 166.2 961C152.3 961 138.7 961 124.8 961C111 961 97 961 83.2 961C69.3 961 55.7 961 41.8 961C28 961 14 961 7 961L0 961Z"
          fill="#679cc2"></path>
</svg>
