<svg id="visual" viewBox="0 0 540 960" width="540" height="960" xmlns="http://www.w3.org/2000/svg" xmlns:xlink="http://www.w3.org/1999/xlink" version="1.1"><rect x="0" y="0" width="540" height="960" fill="#679CC2"></rect><path d="M0 621L12.8 629.8C25.7 638.7 51.3 656.3 77 664.8C102.7 673.3 128.3 672.7 154 669.8C179.7 667 205.3 662 231.2 656.8C257 651.7 283 646.3 308.8 674C334.7 701.7 360.3 762.3 386 758.5C411.7 754.7 437.3 686.3 463 685C488.7 683.7 514.3 749.3 527.2 782.2L540 815L540 961L527.2 961C514.3 961 488.7 961 463 961C437.3 961 411.7 961 386 961C360.3 961 334.7 961 308.8 961C283 961 257 961 231.2 961C205.3 961 179.7 961 154 961C128.3 961 102.7 961 77 961C51.3 961 25.7 961 12.8 961L0 961Z" fill="#293C4A" stroke-linecap="round" stroke-linejoin="miter"></path></svg>